<svg xmlns="http://www.w3.org/2000/svg" viewBox="0 0 100 100">
  <circle cx="50" cy="50" r="45" fill="#2E8B57"/>
  <path d="M50 15c-19.3 0-35 15.7-35 35s15.7 35 35 35 35-15.7 35-35-15.7-35-35-35zm0 65c-16.5 0-30-13.5-30-30s13.5-30 30-30 30 13.5 30 30-13.5 30-30 30z" fill="#fff"/>
  <path d="M42 40h-6v20h6v-8h6v8h6V40h-6v8h-6z" fill="#fff"/>
  <path d="M60 40v12c0 4.4 3.6 8 8 8s8-3.6 8-8V40h-6v12c0 1.1-.9 2-2 2s-2-.9-2-2V40h-6z" fill="#fff"/>
  <path d="M26 40c-1.1 0-2 .9-2 2v16c0 1.1.9 2 2 2h8c1.1 0 2-.9 2-2V42c0-1.1-.9-2-2-2h-8zm2 16V44h4v12h-4z" fill="#fff"/>
</svg>
