<svg xmlns="http://www.w3.org/2000/svg" viewBox="0 0 100 100">
  <circle cx="50" cy="50" r="45" fill="#7B68EE"/>
  <path d="M65 35c-3.3 0-6 2.7-6 6s2.7 6 6 6 6-2.7 6-6-2.7-6-6-6zm0 10c-2.2 0-4-1.8-4-4s1.8-4 4-4 4 1.8 4 4-1.8 4-4 4z" fill="#fff"/>
  <path d="M50 25c-16.5 0-30 13.5-30 30s13.5 30 30 30 30-13.5 30-30-13.5-30-30-30zm0 58c-15.4 0-28-12.6-28-28s12.6-28 28-28 28 12.6 28 28-12.6 28-28 28z" fill="#fff"/>
  <path d="M36 50c0-2.2 1.8-4 4-4s4 1.8 4 4h2c0-3.3-2.7-6-6-6s-6 2.7-6 6h2z" fill="#fff"/>
  <path d="M50 60c-6.6 0-12-5.4-12-12h-2c0 7.7 6.3 14 14 14s14-6.3 14-14h-2c0 6.6-5.4 12-12 12z" fill="#fff"/>
  <path d="M44 42c0 1.1-.9 2-2 2s-2-.9-2-2 .9-2 2-2 2 .9 2 2z" fill="#fff"/>
</svg>
